<svg fill="none" height="46" viewBox="0 0 153 46" width="153" xmlns="http://www.w3.org/2000/svg" xmlns:xlink="http://www.w3.org/1999/xlink"><clipPath id="a"><path d="m0 0h152.655v46h-152.655z"/></clipPath><g clip-path="url(#a)"><path d="m147.224 46h-141.87656c-2.94793 0-5.34744-2.4472-5.34744-5.443v-35.1221c0-2.9969 2.39951-5.4349 5.34744-5.4349h141.87656c2.947 0 5.431 2.438 5.431 5.4349v35.1221c0 2.9958-2.484 5.443-5.431 5.443z" fill="#a6a6a6"/><path d="m151.56 40.5581c0 2.4334-1.938 4.4045-4.335 4.4045h-141.87757c-2.39612 0-4.34105-1.9711-4.34105-4.4045v-35.12441c0-2.43225 1.94493-4.41025 4.34105-4.41025h141.87657c2.398 0 4.335 1.978 4.335 4.41025z" fill="#000"/><g fill="#fff"><path d="m34.068 22.7516c-.0328-3.7064 2.9842-5.5096 3.1221-5.5936-1.7086-2.5334-4.3569-2.8796-5.2875-2.9072-2.2242-.238-4.3818 1.3536-5.5148 1.3536-1.1557 0-2.9004-1.3306-4.7809-1.2915-2.4199.038-4.6837 1.4628-5.9253 3.6754-2.5623 4.5115-.6513 11.1412 1.8036 14.7879 1.228 1.7859 2.663 3.78 4.5412 3.7099 1.8375-.0771 2.5239-1.1914 4.7413-1.1914 2.1971 0 2.8417 1.1914 4.7572 1.1465 1.9721-.0322 3.2137-1.794 4.3987-3.596 1.4192-2.047 1.9891-4.063 2.0117-4.1665-.0464-.0161-3.8299-1.4846-3.8673-5.9271z"/><path d="m30.4495 11.852c.9883-1.2569 1.6645-2.96699 1.4768-4.70234-1.4304.0644-3.2193 1.00625-4.2494 2.2356-.9114 1.08334-1.7256 2.85894-1.5153 4.52874 1.6069.1219 3.2567-.8246 4.2879-2.062z"/><path d="m60.6605 36.2297h-2.568l-1.4067-4.4953h-4.8894l-1.34 4.4953h-2.5002l4.8443-15.3042h2.992zm-4.3987-6.3813-1.2721-3.9963c-.1346-.4082-.3868-1.3696-.7588-2.883h-.0452c-.1481.6509-.3867 1.6123-.7147 2.883l-1.2495 3.9963z"/><path d="m73.1183 30.5763c0 1.8768-.4987 3.3603-1.4961 4.4494-.8933.9694-2.0026 1.4536-3.3267 1.4536-1.4293 0-2.456-.5221-3.0814-1.5663h-.0452v5.8132h-2.4108v-11.899c0-1.1799-.0305-2.3909-.0893-3.6329h2.1202l.1345 1.7492h.0453c.8039-1.3179 2.024-1.9757 3.6614-1.9757 1.2801 0 2.3486.514 3.2035 1.5433.8571 1.0304 1.2846 2.3851 1.2846 4.0652zm-2.4561.0897c0-1.0741-.2374-1.9596-.7146-2.6565-.5213-.7268-1.2213-1.0902-2.0988-1.0902-.5947 0-1.1353.2024-1.6181.6015-.484.4025-.8006.928-.9487 1.5789-.0746.3036-.112.552-.112.7475v1.84c0 .8027.242 1.4801.726 2.0332.484.5532 1.1127.8292 1.8861.8292.908 0 1.6148-.3565 2.1202-1.0672.5066-.7119.7599-1.6503.7599-2.8164z"/><path d="m85.5987 30.5763c0 1.8768-.4987 3.3603-1.4972 4.4494-.8922.9694-2.0015 1.4536-3.3256 1.4536-1.4293 0-2.456-.5221-3.0802-1.5663h-.0453v5.8132h-2.4108v-11.899c0-1.1799-.0305-2.3909-.0893-3.6329h2.1202l.1346 1.7492h.0452c.8028-1.3179 2.023-1.9757 3.6615-1.9757 1.2789 0 2.3474.514 3.2046 1.5433.8537 1.0304 1.2823 2.3851 1.2823 4.0652zm-2.4561.0897c0-1.0741-.2386-1.9596-.7158-2.6565-.5212-.7268-1.2189-1.0902-2.0975-1.0902-.596 0-1.1353.2024-1.6193.6015-.484.4025-.7995.928-.9476 1.5789-.0735.3036-.112.552-.112.7475v1.84c0 .8027.242 1.4801.7237 2.0332.484.552 1.1127.8292 1.8884.8292.9081 0 1.6148-.3565 2.1202-1.0672.5066-.7119.7599-1.6503.7599-2.8164z"/><path d="m99.5525 31.9378c0 1.3018-.4444 2.361-1.3366 3.1786-.9804.8936-2.3452 1.3398-4.0991 1.3398-1.6193 0-2.9174-.3174-3.9-.9534l.5586-2.0435c1.0584.6509 2.2197.9775 3.485.9775.908 0 1.6148-.2093 2.1225-.6256.5054-.4163.7576-.9752.7576-1.6721 0-.621-.2081-1.1443-.6253-1.5686-.415-.4244-1.1082-.8188-2.0761-1.1834-2.6347-.9993-3.9509-2.4633-3.9509-4.3884 0-1.2581.4613-2.2896 1.3852-3.0923.9204-.8039 2.1484-1.2052 3.684-1.2052 1.3694 0 2.507.2426 3.415.7268l-.6027 1.9987c-.8481-.4692-1.807-.7038-2.8801-.7038-.8481 0-1.5107.2127-1.9857.6359-.4014.3784-.6027.8395-.6027 1.3858 0 .6049.2296 1.1051.6909 1.4984.4015.3634 1.1308.7567 2.1892 1.1811 1.2948.5301 2.2457 1.15 2.8575 1.8607.6095.7084.9137 1.595.9137 2.653z"/><path d="m107.523 27.0342h-2.657v5.3579c0 1.3627.468 2.0435 1.407 2.0435.43 0 .788-.0379 1.071-.1138l.066 1.8618c-.475.1806-1.1.2714-1.875.2714-.952 0-1.696-.2955-2.233-.8855-.535-.5911-.804-1.5824-.804-2.975v-5.5626h-1.583v-1.84h1.583v-2.0205l2.368-.7268v2.7473h2.657z"/><path d="m119.513 30.621c0 1.6963-.477 3.0889-1.429 4.178-.999 1.1212-2.324 1.6801-3.976 1.6801-1.592 0-2.86-.537-3.805-1.6111-.946-1.0741-1.418-2.43-1.418-4.0641 0-1.7101.486-3.1108 1.462-4.1998.973-1.0902 2.287-1.6353 3.939-1.6353 1.593 0 2.874.537 3.841 1.6123.925 1.043 1.386 2.3897 1.386 4.0399zm-2.501.0794c0-1.0178-.214-1.8906-.647-2.6186-.506-.8809-1.228-1.3202-2.164-1.3202-.97 0-1.706.4405-2.211 1.3202-.433.7291-.647 1.6158-.647 2.6646 0 1.0177.214 1.8906.647 2.6174.521.8809 1.249 1.3202 2.189 1.3202.921 0 1.643-.4485 2.164-1.3432.445-.7418.669-1.6238.669-2.6404z"/><path d="m127.349 27.3506c-.238-.0449-.493-.0679-.76-.0679-.848 0-1.504.3255-1.965.9775-.401.575-.603 1.3018-.603 2.1793v5.7902h-2.409l.022-7.5601c0-1.2719-.03-2.4299-.09-3.4741h2.1l.088 2.1114h.067c.254-.7257.655-1.3099 1.205-1.748.537-.3945 1.117-.5911 1.743-.5911.222 0 .424.0161.602.0448z"/><path d="m138.131 30.1899c0 .4393-.028.8096-.088 1.112h-7.232c.028 1.0902.377 1.924 1.049 2.499.609.514 1.398.7716 2.365.7716 1.071 0 2.048-.1736 2.927-.5221l.378 1.702c-1.027.4554-2.239.682-3.638.682-1.683 0-3.003-.5037-3.965-1.51-.959-1.0062-1.439-2.3575-1.439-4.0526 0-1.664.447-3.0498 1.341-4.1549.936-1.1799 2.202-1.7699 3.794-1.7699 1.564 0 2.748.59 3.552 1.7699.636.9372.956 2.0964.956 3.473zm-2.299-.636c.016-.7268-.141-1.3547-.468-1.8848-.417-.682-1.058-1.0224-1.921-1.0224-.788 0-1.429.3324-1.919.9994-.401.5301-.64 1.1661-.713 1.9067h5.021z"/><path d="m55.4646 11.5103c0 1.3535-.3992 2.3724-1.1964 3.0567-.7384.6313-1.7877.9476-3.1469.9476-.674 0-1.2507-.0299-1.7335-.0897v-7.3957c.6298-.1035 1.3083-.1564 2.041-.1564 1.2948 0 2.2706.28635 2.9288.85905.7372.64745 1.107 1.57325 1.107 2.77845zm-1.2495.0333c0-.8774-.2284-1.5502-.6853-2.0194-.4568-.46805-1.124-.70265-2.0026-.70265-.3731 0-.6909.0253-.9544.0782v5.62235c.1459.023.4128.0334.8006.0334.9069 0 1.6069-.2565 2.0999-.7694s.7418-1.2604.7418-2.2425z"/><path d="m62.0898 12.6924c0 .8337-.2341 1.5168-.7022 2.0527-.4908.5509-1.1409.8257-1.9528.8257-.7825 0-1.4056-.2633-1.8704-.7923-.4636-.5279-.6954-1.1937-.6954-1.9964 0-.8395.2386-1.5284.7181-2.0631.4794-.5348 1.124-.80274 1.9359-.80274.7825 0 1.4112.26334 1.8872.79124.4523.5129.6796 1.1753.6796 1.9849zm-1.2291.0391c0-.5003-.1063-.9292-.3178-1.2869-.2488-.4324-.6027-.6486-1.0629-.6486-.4761 0-.8379.2162-1.0867.6486-.2126.3577-.3177.7935-.3177 1.3087 0 .5003.1063.9292.3177 1.2869.2567.4324.614.6486 1.0754.6486.4523 0 .8073-.2197 1.0629-.6601.2194-.3646.3291-.797.3291-1.2972z"/><path d="m70.9732 10.0269-1.6679 5.4211h-1.0855l-.6909-2.3541c-.1753-.5876-.3178-1.1718-.4286-1.7514h-.0215c-.1029.5957-.2454 1.1787-.4286 1.7514l-.7338 2.3541h-1.098l-1.5684-5.4211h1.2178l.6027 2.5771c.1459.6095.2658 1.1903.3619 1.74h.0215c.0882-.4531.2341-1.0304.4399-1.7285l.7564-2.5875h.9657l.7249 2.5323c.1752.6176.3177 1.2121.4274 1.7848h.0328c.0803-.5577.2013-1.1523.3618-1.7848l.6468-2.5323h1.1636z"/><path d="m77.1167 15.4478h-1.1851v-3.105c0-.9568-.3573-1.4352-1.0742-1.4352-.3517 0-.6355.1311-.856.3944-.2182.2634-.329.5739-.329.9292v3.2154h-1.1851v-3.8709c0-.4761-.0147-.9924-.043-1.5513h1.0415l.0554.8475h.0328c.1379-.2633.3437-.4807.614-.6543.3211-.2024.6807-.30476 1.0742-.30476.4976 0 .9114.16326 1.2405.49106.4093.4013.614 1.0005.614 1.7963z"/><path d="m80.3846 15.4479h-1.1839v-7.90859h1.1839z"/><path d="m87.3615 12.6924c0 .8337-.234 1.5168-.7022 2.0527-.4907.5509-1.142.8257-1.9528.8257-.7836 0-1.4067-.2633-1.8703-.7923-.4636-.5279-.6955-1.1937-.6955-1.9964 0-.8395.2386-1.5284.7181-2.0631.4794-.5348 1.124-.80274 1.9348-.80274.7836 0 1.4112.26334 1.8883.79124.4524.5129.6796 1.1753.6796 1.9849zm-1.2302.0391c0-.5003-.1063-.9292-.3178-1.2869-.2476-.4324-.6027-.6486-1.0618-.6486-.4772 0-.839.2162-1.0867.6486-.2126.3577-.3177.7935-.3177 1.3087 0 .5003.1063.9292.3177 1.2869.2567.4324.6141.6486 1.0754.6486.4523 0 .8062-.2197 1.0618-.6601.2205-.3646.3291-.797.3291-1.2972z"/><path d="m93.0968 15.4478h-1.064l-.0882-.6245h-.0328c-.3641.498-.8832.7475-1.5571.7475-.5032 0-.9103-.1644-1.2167-.491-.2782-.2967-.4173-.6659-.4173-1.104 0-.6624.2714-1.1673.8176-1.5169.545-.3496 1.3117-.5209 2.2989-.5129v-.1012c0-.7141-.3687-1.0706-1.1071-1.0706-.5258 0-.9894.1345-1.3897.4013l-.2409-.7912c.4953-.3116 1.1071-.46804 1.8285-.46804 1.3931 0 2.0919.74754 2.0919 2.24254v1.9964c0 .5416.0261.9729.0769 1.2926zm-1.2303-1.863v-.8361c-1.3071-.023-1.9607.3416-1.9607 1.0925 0 .2829.0746.4945.2273.636.1526.1414.3471.2116.5789.2116.2601 0 .5032-.084.7249-.2507.2227-.1679.3595-.3807.4104-.6417.0125-.0587.0192-.13.0192-.2116z"/><path d="m99.8306 15.4479h-1.0516l-.0554-.8706h-.0328c-.3359.6624-.908.9936-1.712.9936-.6423 0-1.1771-.2564-1.6012-.7693-.424-.5129-.6355-1.1788-.6355-1.9964 0-.8775.2296-1.5882.6909-2.131.4467-.506.994-.75899 1.6453-.75899.7158 0 1.2167.24499 1.5017.73599h.0226v-3.11189h1.1862v6.44809c0 .5278.0135 1.0143.0418 1.4605zm-1.228-2.2862v-.9039c0-.1564-.0113-.2829-.0328-.3795-.0667-.2898-.2103-.5336-.4286-.7303-.2205-.1966-.4862-.2955-.7926-.2955-.4422 0-.7882.1782-1.0426.5359-.2522.3576-.38.8142-.38 1.3719 0 .5359.121.9706.3642 1.3053.2566.3565.6027.5347 1.0357.5347.389 0 .7-.1483.9363-.4462.2284-.2748.3404-.606.3404-.9924z"/><path d="m109.966 12.6924c0 .8337-.234 1.5168-.702 2.0527-.491.5509-1.14.8257-1.953.8257-.782 0-1.405-.2633-1.871-.7923-.463-.5279-.695-1.1937-.695-1.9964 0-.8395.239-1.5284.718-2.0631.479-.5348 1.124-.80274 1.937-.80274.781 0 1.411.26334 1.886.79124.452.5129.68 1.1753.68 1.9849zm-1.228.0391c0-.5003-.107-.9292-.318-1.2869-.25-.4324-.603-.6486-1.064-.6486-.475 0-.837.2162-1.087.6486-.212.3577-.317.7935-.317 1.3087 0 .5003.106.9292.317 1.2869.257.4324.614.6486 1.076.6486.452 0 .808-.2197 1.064-.6601.218-.3646.329-.797.329-1.2972z"/><path d="m116.338 15.4478h-1.184v-3.105c0-.9568-.358-1.4352-1.076-1.4352-.351 0-.635.1311-.854.3944-.22.2634-.33.5739-.33.9292v3.2154h-1.186v-3.8709c0-.4761-.013-.9924-.042-1.5513h1.041l.055.8475h.033c.139-.2633.345-.4807.614-.6543.322-.2024.681-.30476 1.075-.30476.497 0 .911.16326 1.24.49106.41.4013.614 1.0005.614 1.7963z"/><path d="m124.313 10.9296h-1.305v2.6335c0 .6693.232 1.004.691 1.004.213 0 .389-.0184.528-.0564l.031.9143c-.234.0897-.542.1345-.921.1345-.468 0-.832-.1449-1.096-.4347s-.395-.7774-.395-1.4616v-2.7336h-.779v-.9027h.779v-.99364l1.161-.3565v1.34894h1.305v.9039z"/><path d="m130.587 15.4479h-1.187v-3.082c0-.9718-.357-1.4582-1.073-1.4582-.549 0-.925.2817-1.13.8452-.036.1185-.056.2634-.056.4336v3.2602h-1.184v-7.90739h1.184v3.26719h.023c.373-.5946.908-.89129 1.601-.89129.491 0 .897.16329 1.219.49109.401.4082.603 1.0154.603 1.8181z"/><path d="m137.058 12.4809c0 .2162-.016.3979-.044.5462h-3.554c.016.5359.185.9442.514 1.2271.301.253.689.3795 1.164.3795.526 0 1.005-.0851 1.437-.2565l.186.8372c-.506.2231-1.101.3347-1.789.3347-.826 0-1.476-.2473-1.946-.7418-.473-.4945-.707-1.158-.707-1.9906 0-.8177.218-1.4985.658-2.0413.459-.5796 1.08-.86939 1.864-.86939.766 0 1.349.28979 1.742.86939.318.46.475 1.0293.475 1.7055zm-1.131-.3117c.009-.3576-.069-.6658-.229-.9257-.206-.3347-.519-.5026-.943-.5026-.387 0-.703.1633-.943.4911-.197.261-.314.5727-.352.9372z"/></g></g></svg>