<svg fill="none" height="46" viewBox="0 0 153 46" width="153" xmlns="http://www.w3.org/2000/svg" xmlns:xlink="http://www.w3.org/1999/xlink"><linearGradient id="a" gradientUnits="userSpaceOnUse" x1="24.5485" x2="2.13917" y1="10.0125" y2="15.8595"><stop offset="0" stop-color="#00a0ff"/><stop offset=".00657" stop-color="#00a1ff"/><stop offset=".2601" stop-color="#00beff"/><stop offset=".5122" stop-color="#00d2ff"/><stop offset=".7604" stop-color="#00dfff"/><stop offset="1" stop-color="#00e3ff"/></linearGradient><linearGradient id="b" gradientUnits="userSpaceOnUse" x1="38.1023" x2="10.8531" y1="23.0002" y2="23.0002"><stop offset="0" stop-color="#ffe000"/><stop offset=".4087" stop-color="#ffbd00"/><stop offset=".7754" stop-color="#ffa500"/><stop offset="1" stop-color="#ff9c00"/></linearGradient><linearGradient id="c" gradientUnits="userSpaceOnUse" x1="27.9582" x2="9.45553" y1="25.6419" y2="56.1374"><stop offset="0" stop-color="#ff3a44"/><stop offset="1" stop-color="#c31162"/></linearGradient><linearGradient id="d" gradientUnits="userSpaceOnUse" x1="8.21512" x2="16.4701" y1=".205652" y2="13.8256"><stop offset="0" stop-color="#32a071"/><stop offset=".0685" stop-color="#2da771"/><stop offset=".4762" stop-color="#15cf74"/><stop offset=".8009" stop-color="#06e775"/><stop offset="1" stop-color="#00f076"/></linearGradient><clipPath id="e"><path d="m0 0h152.655v46h-152.655z"/></clipPath><g clip-path="url(#e)"><path clip-rule="evenodd" d="m146.999 46h-141.34304c-3.11724 0-5.65596-2.5925-5.65596-5.75v-34.5c0-3.16895 2.53872-5.75 5.65596-5.75h141.34304c3.114 0 5.656 2.58105 5.656 5.75v34.5c0 3.1575-2.542 5.75-5.656 5.75z" fill="#000" fill-rule="evenodd"/><path clip-rule="evenodd" d="m146.999.920573c2.614 0 4.754 2.170947 4.754 4.829427v34.5c0 2.6585-2.126 4.8294-4.754 4.8294h-141.34304c-2.61455 0-4.754488-2.1709-4.754488-4.8294v-34.5c0-2.65848 2.125898-4.829427 4.754488-4.829427zm0-.920573h-141.34304c-3.11724 0-5.65596 2.59252-5.65596 5.75v34.5c0 3.169 2.53872 5.75 5.65596 5.75h141.34304c3.114 0 5.656-2.581 5.656-5.75v-34.5c0-3.15748-2.542-5.75-5.656-5.75z" fill="#a6a6a6" fill-rule="evenodd"/><path d="m80.4188 15.2168c-1.0194 0-1.8788-.3642-2.5584-1.0812-.674-.6969-1.0503-1.6576-1.0334-2.6384 0-1.0467.3482-1.93289 1.0334-2.63551.6768-.71696 1.5362-1.08117 2.5556-1.08117 1.0082 0 1.8675.36421 2.5583 1.08117.6853.72556 1.0335 1.61171 1.0335 2.63551-.0112 1.0497-.3595 1.9358-1.0335 2.6356-.6768.7227-1.5361 1.084-2.5555 1.084zm-30.3325 0c-.9969 0-1.8619-.3585-2.5696-1.0668-.702-.7055-1.0587-1.5974-1.0587-2.6499s.3567-1.9444 1.0587-2.64988c.6937-.70836 1.5586-1.06683 2.5696-1.06683.4943 0 .9745.10037 1.4351.30399.4521.19788.82.46745 1.0924.79725l.0674.08317-.761.76284-.0787-.09464c-.4297-.52194-1.0054-.77718-1.7664-.77718-.6796 0-1.2722.24664-1.7608.73417-.4915.49041-.7414 1.13281-.7414 1.91001 0 .7771.2499 1.4195.7414 1.9099.4886.4876 1.0812.7342 1.7608.7342.7245 0 1.3339-.2466 1.8085-.7342.2809-.2867.455-.6882.5168-1.1958h-2.4404v-1.0726h3.4879l.014.0975c.0253.1807.0506.3671.0506.5391 0 .9894-.2921 1.7896-.8706 2.3803-.6572.6998-1.5165 1.0554-2.5556 1.0554zm40.33-.152h-1.0755l-3.2942-5.38291.0281.96931v4.4107h-1.0756v-7.12652h1.2272l.0337.05449 3.0976 5.07033-.0281-.9665v-4.15832h1.0868zm-18.0798 0h-1.0896v-6.05685h-1.89v-1.07257h4.8668v1.07257h-1.89v6.05685zm-3.867 0h-1.0869v-7.12942h1.0869zm-6.1081 0h-1.0868v-6.05685h-1.89v-1.07257h4.8668v1.07257h-1.89zm-3.6648-.0115h-4.1675v-7.11792h4.1675v1.07257h-3.0779v1.95585h2.7774v1.0611h-2.7774v1.9559h3.0779zm19.9614-1.6547c.4858.4961 1.0756.7456 1.7608.7456.7049 0 1.2806-.2437 1.7608-.7456.4774-.4875.7189-1.1271.7189-1.8985 0-.7715-.2415-1.4138-.7161-1.89851-.4858-.49614-1.0784-.74564-1.7608-.74564-.7049 0-1.2806.24377-1.758.74564-.4774.48751-.7189 1.12701-.7189 1.89851 0 .7714.2387 1.4138.7133 1.8985z" fill="#fff"/><g clip-rule="evenodd" fill-rule="evenodd"><path d="m76.7261 25.0191c-2.6539 0-4.8051 2.0562-4.8051 4.8925 0 2.8105 2.1652 4.8925 4.8051 4.8925 2.6538 0 4.805-2.0706 4.805-4.8925 0-2.8363-2.1512-4.8925-4.805-4.8925zm0 7.8464c-1.452 0-2.7017-1.2275-2.7017-2.9654 0-1.7637 1.2526-2.9653 2.7017-2.9653 1.4519 0 2.7016 1.2016 2.7016 2.9653.0028 1.7494-1.2497 2.9654-2.7016 2.9654zm-10.4835-7.8464c-2.6539 0-4.8051 2.0562-4.8051 4.8925 0 2.8105 2.1652 4.8925 4.8051 4.8925 2.6538 0 4.805-2.0706 4.805-4.8925 0-2.8363-2.154-4.8925-4.805-4.8925zm0 7.8464c-1.4519 0-2.7017-1.2275-2.7017-2.9654 0-1.7637 1.2526-2.9653 2.7017-2.9653 1.4519 0 2.7016 1.2016 2.7016 2.9653 0 1.7494-1.2497 2.9654-2.7016 2.9654zm-12.4746-6.3523v2.0706h4.8668c-.1488 1.1615-.5252 2.0189-1.1009 2.6068-.7133.7285-1.8142 1.52-3.7547 1.52-2.9909 0-5.3302-2.4663-5.3302-5.5206 0-3.0542 2.3393-5.5206 5.3302-5.5206 1.6148 0 2.7915.651 3.6649 1.4827l1.4378-1.4683c-1.2132-1.1873-2.828-2.0964-5.0915-2.0964-4.1029 0-7.546 3.4127-7.546 7.5912 0 4.1899 3.4403 7.5911 7.546 7.5911 2.2158 0 3.8783-.7399 5.1926-2.1337 1.3396-1.3679 1.7637-3.298 1.7637-4.8552 0-.4847-.0365-.9206-.1124-1.2905h-6.8691c.0028-.0029.0028.0229.0028.0229zm51.024 1.6117c-.401-1.0983-1.614-3.1173-4.102-3.1173-2.4662 0-4.5163 1.9817-4.5163 4.8925 0 2.7474 2.0276 4.8925 4.7543 4.8925 2.191 0 3.466-1.3679 3.991-2.1709l-1.626-1.1127c-.539.8173-1.289 1.3536-2.354 1.3536-1.0751 0-1.8278-.499-2.3276-1.4827l6.4056-2.7101c0 .0029-.225-.5449-.225-.5449zm-6.5317 1.6347c-.0505-1.8899 1.4379-2.8506 2.5027-2.8506.839 0 1.539.4215 1.777 1.0353zm-5.2038 4.7405h2.1034v-14.3735h-2.1034zm-3.4543-8.3941h-.0758c-.4746-.5765-1.3761-1.0984-2.5275-1.0984-2.3899 0-4.5916 2.148-4.5916 4.9069 0 2.7473 2.1905 4.8695 4.5916 4.8695 1.1374 0 2.0529-.5248 2.5275-1.1127h.0758v.7026c0 1.867-.9773 2.8736-2.5527 2.8736-1.2891 0-2.0894-.9464-2.4152-1.7379l-1.8282.78c.5251 1.2906 1.9265 2.888 4.2406 2.888 2.4657 0 4.5551-1.4827 4.5551-5.099v-8.7785h-1.9883v.8059zm-2.4151 6.7595c-1.4519 0-2.6651-1.2389-2.6651-2.951 0-1.7265 1.2132-2.9768 2.6651-2.9768 1.4378 0 2.5527 1.2647 2.5527 2.9768.0141 1.7121-1.112 2.951-2.5527 2.951zm27.4539-12.7389h-5.029v14.3735h2.103v-5.4431h2.929c2.328 0 4.617-1.7236 4.617-4.4595s-2.28-4.4709-4.62-4.4709zm.062 6.9229h-2.991v-4.9327h2.991c1.576 0 2.466 1.3278 2.466 2.4664 0 1.127-.902 2.4663-2.466 2.4663zm12.989-2.0562c-1.528 0-3.104.6911-3.755 2.1967l1.865.7915c.401-.7915 1.137-1.0611 1.915-1.0611 1.09 0 2.19.6654 2.216 1.8527v.152c-.377-.218-1.202-.5507-2.191-.5507-2.013 0-4.055 1.1242-4.055 3.2321 0 1.93 1.651 3.1689 3.491 3.1689 1.412 0 2.19-.651 2.676-1.4052h.076v1.1127h2.027v-5.5062c0-2.5639-1.864-3.9834-4.265-3.9834zm-.264 7.8722c-.688 0-1.652-.3442-1.652-1.2275 0-1.1127 1.202-1.5343 2.227-1.5343.927 0 1.365.2037 1.916.4847-.152 1.2905-1.219 2.2656-2.491 2.2771zm11.927-7.5654-2.416 6.2347h-.075l-2.503-6.2347h-2.263l3.755 8.7154-2.14 4.8437h2.19l5.777-13.5591zm-18.934 9.2h2.103v-14.3735h-2.103z" fill="#fff"/><path d="m11.7499 8.66361c-.3258.35848-.5139.90624-.5139 1.62319v25.4291c0 .7169.1881 1.2647.5251 1.6088l.0871.0774 13.9517-14.2473v-.3184l-13.963-14.25022z" fill="url(#a)"/><path d="m30.4422 27.9184-4.6534-4.752v-.3326l4.6534-4.752.1011.0631 5.5044 3.1947c1.5755.9063 1.5755 2.4033 0 3.321l-5.5044 3.1947z" fill="url(#b)"/><path d="m30.5436 27.8552-4.7545-4.8552-14.0389 14.3363c.514.5621 1.3761.6252 2.3394.0774z" fill="url(#c)"/><path d="m30.5436 18.1448-16.454-9.54413c-.9633-.5621-1.8282-.48466-2.3394.07743l14.0389 14.322z" fill="url(#d)"/><path d="m30.4422 27.7522-16.3418 9.481c-.9127.5363-1.7271.499-2.2523.0115l-.0871.0889.0871.0774c.5252.4847 1.3396.5248 2.2523-.0114l16.4541-9.5442z" fill="#000" opacity=".2"/><path d="m36.0476 24.4941-5.6195 3.2579.1011.1032 5.5043-3.1947c.7892-.4589 1.1767-1.0611 1.1767-1.6605-.0477.5506-.4493 1.0726-1.1626 1.4941z" fill="#000" opacity=".12"/><path d="m14.0892 8.76713 21.9583 12.73887c.7133.4101 1.1149.9464 1.1767 1.4942 0-.5994-.3876-1.2016-1.1767-1.6605l-21.9583-12.7389c-1.5755-.92058-2.8532-.152-2.8532 1.6863v.1663c0-1.84113 1.2777-2.59537 2.8532-1.68627z" fill="#fff" opacity=".25"/></g></g></svg>