<svg width="512" height="512" viewBox="0 0 512 512" fill="none" xmlns="http://www.w3.org/2000/svg">
  <rect width="512" height="512" rx="50" fill="url(#paint0_linear)" />
  <path
    d="M145.783 308.44C138.103 308.44 132.247 306.28 128.215 301.96C124.183 297.544 122.167 291.256 122.167 283.096V230.104C122.167 221.944 124.183 215.704 128.215 211.384C132.247 206.968 138.103 204.76 145.783 204.76C153.463 204.76 159.319 206.968 163.351 211.384C167.384 215.704 169.4 221.944 169.4 230.104V238.744H154.423V229.096C154.423 222.472 151.687 219.16 146.215 219.16C140.743 219.16 138.007 222.472 138.007 229.096V284.248C138.007 290.776 140.743 294.04 146.215 294.04C151.687 294.04 154.423 290.776 154.423 284.248V264.52H146.503V250.12H169.4V283.096C169.4 291.256 167.384 297.544 163.351 301.96C159.319 306.28 153.463 308.44 145.783 308.44ZM208.37 206.2H224.21V307H208.37V206.2ZM285.465 308.44C277.785 308.44 271.977 306.28 268.041 301.96C264.105 297.544 262.137 291.256 262.137 283.096V277.336H277.113V284.248C277.113 290.776 279.849 294.04 285.321 294.04C288.009 294.04 290.025 293.272 291.369 291.736C292.809 290.104 293.529 287.512 293.529 283.96C293.529 279.736 292.569 276.04 290.649 272.872C288.729 269.608 285.177 265.72 279.993 261.208C273.465 255.448 268.905 250.264 266.313 245.656C263.721 240.952 262.425 235.672 262.425 229.816C262.425 221.848 264.441 215.704 268.473 211.384C272.505 206.968 278.361 204.76 286.041 204.76C293.625 204.76 299.337 206.968 303.177 211.384C307.113 215.704 309.081 221.944 309.081 230.104V234.28H294.105V229.096C294.105 225.64 293.433 223.144 292.089 221.608C290.745 219.976 288.777 219.16 286.185 219.16C280.905 219.16 278.265 222.376 278.265 228.808C278.265 232.456 279.225 235.864 281.145 239.032C283.161 242.2 286.761 246.04 291.945 250.552C298.569 256.312 303.129 261.544 305.625 266.248C308.121 270.952 309.369 276.472 309.369 282.808C309.369 291.064 307.305 297.4 303.177 301.816C299.145 306.232 293.241 308.44 285.465 308.44ZM359.635 220.6H343.075V206.2H392.035V220.6H375.475V307H359.635V220.6Z"
    fill="white" />
  <defs>
    <linearGradient id="paint0_linear" x1="0" y1="0" x2="512" y2="512" gradientUnits="userSpaceOnUse">
      <stop offset="0.302083" stop-color="#388AFF" />
      <stop offset="1" stop-color="#1160CF" />
    </linearGradient>
  </defs>
</svg>